<svg xmlns="http://www.w3.org/2000/svg" viewBox="0 0 64 64" role="img" aria-label="English">
  <clipPath id="en-clip"><circle cx="32" cy="32" r="32"/></clipPath>
  <g clip-path="url(#en-clip)">
    <rect width="64" height="64" fill="#B22234"/>
    <path fill="#fff" d="M0 5h64v5H0zm0 10h64v5H0zm0 10h64v5H0zm0 10h64v5H0zm0 10h64v5H0zm0 10h64v5H0z"/>
    <rect width="28" height="30" fill="#3C3B6E"/>
    <g fill="#fff">
      <circle cx="4" cy="4" r="1.2"/><circle cx="10" cy="4" r="1.2"/><circle cx="16" cy="4" r="1.2"/><circle cx="22" cy="4" r="1.2"/>
      <circle cx="7" cy="9" r="1.2"/><circle cx="13" cy="9" r="1.2"/><circle cx="19" cy="9" r="1.2"/>
      <circle cx="4" cy="14" r="1.2"/><circle cx="10" cy="14" r="1.2"/><circle cx="16" cy="14" r="1.2"/><circle cx="22" cy="14" r="1.2"/>
      <circle cx="7" cy="19" r="1.2"/><circle cx="13" cy="19" r="1.2"/><circle cx="19" cy="19" r="1.2"/>
      <circle cx="4" cy="24" r="1.2"/><circle cx="10" cy="24" r="1.2"/><circle cx="16" cy="24" r="1.2"/><circle cx="22" cy="24" r="1.2"/>
    </g>
  </g>
</svg>
